<mxfile host="app.diagrams.net" modified="2022-07-18T07:47:42.003Z" agent="5.0 (Windows NT 10.0; Win64; x64) AppleWebKit/537.36 (KHTML, like Gecko) Chrome/103.0.0.0 Safari/537.36" etag="J3d3szGSZkYi_OCHIhM-" version="20.1.1" type="github">
  <diagram id="YMKto4nkkbXnwOMyfpTL" name="Page-1">
    <mxGraphModel dx="1334" dy="802" grid="1" gridSize="10" guides="1" tooltips="1" connect="1" arrows="1" fold="1" page="1" pageScale="1" pageWidth="827" pageHeight="1169" math="0" shadow="0">
      <root>
        <mxCell id="0" />
        <mxCell id="1" parent="0" />
        <mxCell id="5I4CGSTl5R4p9siOL2zQ-2" style="edgeStyle=orthogonalEdgeStyle;rounded=0;orthogonalLoop=1;jettySize=auto;html=1;entryX=0.5;entryY=0;entryDx=0;entryDy=0;elbow=vertical;exitX=1;exitY=0.5;exitDx=0;exitDy=0;curved=1;" parent="1" source="YPW7gXJ141fYKW6mEIPm-1" target="YPW7gXJ141fYKW6mEIPm-5" edge="1">
          <mxGeometry relative="1" as="geometry" />
        </mxCell>
        <mxCell id="YPW7gXJ141fYKW6mEIPm-1" value="&lt;font style=&quot;vertical-align: inherit;&quot;&gt;&lt;font style=&quot;vertical-align: inherit;&quot;&gt;&lt;font style=&quot;vertical-align: inherit;&quot;&gt;&lt;font style=&quot;vertical-align: inherit;&quot;&gt;&lt;font style=&quot;vertical-align: inherit;&quot;&gt;&lt;font style=&quot;vertical-align: inherit;&quot;&gt;&lt;font style=&quot;vertical-align: inherit;&quot;&gt;&lt;font style=&quot;vertical-align: inherit;&quot;&gt;学生访问页面：显示表单&lt;br&gt;学生提交表单给后端&lt;br&gt;技术选型：vue、表单生成器&lt;br&gt;&lt;/font&gt;&lt;/font&gt;&lt;/font&gt;&lt;/font&gt;&lt;/font&gt;&lt;/font&gt;&lt;/font&gt;&lt;/font&gt;" style="whiteSpace=wrap;html=1;aspect=fixed;fillColor=#d5e8d4;strokeColor=#82b366;" parent="1" vertex="1">
          <mxGeometry x="30" y="40" width="260" height="260" as="geometry" />
        </mxCell>
        <mxCell id="YPW7gXJ141fYKW6mEIPm-4" value="&lt;font style=&quot;vertical-align: inherit;&quot;&gt;&lt;font style=&quot;vertical-align: inherit;&quot;&gt;X学校管理员后台：前端&lt;br&gt;数据列表&lt;br&gt;可视化数据显示&lt;br&gt;技术选型：eladmin-ui&lt;br&gt;&lt;/font&gt;&lt;/font&gt;" style="whiteSpace=wrap;html=1;aspect=fixed;fillColor=#d5e8d4;strokeColor=#82b366;" parent="1" vertex="1">
          <mxGeometry x="40" y="460" width="260" height="260" as="geometry" />
        </mxCell>
        <mxCell id="5I4CGSTl5R4p9siOL2zQ-3" style="edgeStyle=orthogonalEdgeStyle;curved=1;rounded=0;orthogonalLoop=1;jettySize=auto;html=1;elbow=vertical;" parent="1" source="YPW7gXJ141fYKW6mEIPm-5" target="YPW7gXJ141fYKW6mEIPm-4" edge="1">
          <mxGeometry relative="1" as="geometry" />
        </mxCell>
        <mxCell id="YPW7gXJ141fYKW6mEIPm-5" value="&lt;font style=&quot;vertical-align: inherit;&quot;&gt;&lt;font style=&quot;vertical-align: inherit;&quot;&gt;H后端接口：&lt;br&gt;1.接受学生表单传的数据&lt;br&gt;2.提供后台显示的数据&lt;br&gt;3.用户登录鉴权&lt;br&gt;4.数据分析，单独显示&lt;br&gt;5.预约办理业务&lt;br&gt;技术选型：eladmin-plus&lt;br&gt;&lt;/font&gt;&lt;/font&gt;" style="rounded=1;whiteSpace=wrap;html=1;fillColor=#dae8fc;strokeColor=#6c8ebf;" parent="1" vertex="1">
          <mxGeometry x="630" y="220" width="370" height="260" as="geometry" />
        </mxCell>
        <mxCell id="5I4CGSTl5R4p9siOL2zQ-4" value="1.接口鉴权：判断是否有权限&lt;br&gt;2.判断表单数据是否合法&lt;br&gt;3.数据合法，对敏感数据进行加密，存入数据库" style="text;html=1;resizable=0;autosize=1;align=center;verticalAlign=middle;points=[];fillColor=none;strokeColor=none;rounded=0;" parent="1" vertex="1">
          <mxGeometry x="810" y="160" width="270" height="60" as="geometry" />
        </mxCell>
        <mxCell id="5I4CGSTl5R4p9siOL2zQ-5" value="前端限制用户输入" style="text;html=1;resizable=0;autosize=1;align=center;verticalAlign=middle;points=[];fillColor=none;strokeColor=none;rounded=0;" parent="1" vertex="1">
          <mxGeometry x="280" y="135" width="120" height="30" as="geometry" />
        </mxCell>
        <mxCell id="i9nsg_vAL1JmGVUzBjhE-3" value="大数据可视化" style="swimlane;" vertex="1" parent="1">
          <mxGeometry x="230" y="910" width="880" height="500" as="geometry">
            <mxRectangle x="250" y="910" width="100" height="30" as="alternateBounds" />
          </mxGeometry>
        </mxCell>
        <mxCell id="i9nsg_vAL1JmGVUzBjhE-22" value="" style="outlineConnect=0;dashed=0;verticalLabelPosition=bottom;verticalAlign=top;align=center;html=1;shape=mxgraph.aws3.office_building;fillColor=#7D7C7C;gradientColor=none;" vertex="1" parent="i9nsg_vAL1JmGVUzBjhE-3">
          <mxGeometry x="50" y="50" width="33" height="79.5" as="geometry" />
        </mxCell>
        <mxCell id="i9nsg_vAL1JmGVUzBjhE-23" value="博雅二栋 开户300人" style="text;html=1;resizable=0;autosize=1;align=center;verticalAlign=middle;points=[];fillColor=none;strokeColor=none;rounded=0;" vertex="1" parent="i9nsg_vAL1JmGVUzBjhE-3">
          <mxGeometry x="-5" y="135" width="130" height="30" as="geometry" />
        </mxCell>
        <mxCell id="i9nsg_vAL1JmGVUzBjhE-24" value="" style="outlineConnect=0;dashed=0;verticalLabelPosition=bottom;verticalAlign=top;align=center;html=1;shape=mxgraph.aws3.office_building;fillColor=#7D7C7C;gradientColor=none;" vertex="1" parent="i9nsg_vAL1JmGVUzBjhE-3">
          <mxGeometry x="180" y="50" width="33" height="79.5" as="geometry" />
        </mxCell>
        <mxCell id="i9nsg_vAL1JmGVUzBjhE-25" value="博雅一栋 开户200人" style="text;html=1;resizable=0;autosize=1;align=center;verticalAlign=middle;points=[];fillColor=none;strokeColor=none;rounded=0;" vertex="1" parent="i9nsg_vAL1JmGVUzBjhE-3">
          <mxGeometry x="125" y="135" width="130" height="30" as="geometry" />
        </mxCell>
      </root>
    </mxGraphModel>
  </diagram>
</mxfile>
